{
  "accessors": [
    {
      "bufferView": 2,
      "componentType": 5126,
      "count": 65532,
      "max": [
        2.0329740047454834,
        0.9700909852981567,
        1.265108585357666
      ],
      "min": [
        -2.0322842597961426,
        -0.9926217198371887,
        -1.2558835744857788
      ],
      "type": "VEC3"
    },
    {
      "bufferView": 2,
      "byteOffset": 786384,
      "componentType": 5126,
      "count": 65532,
      "max": [
        0.9990471005439758,
        0.9999349117279053,
        0.9999390840530396
      ],
      "min": [
        -0.9990471005439758,
        -0.9999349117279053,
        -0.9999391436576843
      ],
      "type": "VEC3"
    },
    {
      "bufferView": 1,
      "componentType": 5126,
      "count": 65532,
      "max": [
        1.0,
        1.0
      ],
      "min": [
        0.0,
        0.0
      ],
      "type": "VEC2"
    },
    {
      "bufferView": 0,
      "componentType": 5125,
      "count": 98298,
      "type": "SCALAR"
    },
    {
      "bufferView": 2,
      "byteOffset": 1572768,
      "componentType": 5126,
      "count": 65532,
      "max": [
        1.8539447784423828,
        0.9438343644142151,
        1.2324579954147339
      ],
      "min": [
        -2.019023895263672,
        -0.9930384159088135,
        -0.4798487722873688
      ],
      "type": "VEC3"
    },
    {
      "bufferView": 2,
      "byteOffset": 2359152,
      "componentType": 5126,
      "count": 65532,
      "max": [
        0.9994968771934509,
        0.9998962879180908,
        0.9998998045921326
      ],
      "min": [
        -0.9994968175888062,
        -0.9998963475227356,
        -0.9998998045921326
      ],
      "type": "VEC3"
    },
    {
      "bufferView": 1,
      "byteOffset": 524256,
      "componentType": 5126,
      "count": 65532,
      "max": [
        1.0,
        1.0
      ],
      "min": [
        0.0,
        0.0
      ],
      "type": "VEC2"
    },
    {
      "bufferView": 0,
      "byteOffset": 393192,
      "componentType": 5125,
      "count": 98298,
      "type": "SCALAR"
    },
    {
      "bufferView": 2,
      "byteOffset": 3145536,
      "componentType": 5126,
      "count": 28728,
      "max": [
        1.9870514869689941,
        0.8669593930244446,
        1.1573652029037476
      ],
      "min": [
        -2.0329909324645996,
        -0.9930384159088135,
        -1.1260230541229248
      ],
      "type": "VEC3"
    },
    {
      "bufferView": 2,
      "byteOffset": 3490272,
      "componentType": 5126,
      "count": 28728,
      "max": [
        0.9988214373588562,
        0.9996724128723145,
        0.9999268651008606
      ],
      "min": [
        -0.9988214373588562,
        -0.9995434880256653,
        -0.9999268651008606
      ],
      "type": "VEC3"
    },
    {
      "bufferView": 1,
      "byteOffset": 1048512,
      "componentType": 5126,
      "count": 28728,
      "max": [
        1.0,
        1.0
      ],
      "min": [
        0.0,
        0.0
      ],
      "type": "VEC2"
    },
    {
      "bufferView": 0,
      "byteOffset": 786384,
      "componentType": 5125,
      "count": 43092,
      "type": "SCALAR"
    },
    {
      "bufferView": 2,
      "byteOffset": 3835008,
      "componentType": 5126,
      "count": 65532,
      "max": [
        2.0329740047454834,
        0.9700909852981567,
        1.265108585357666
      ],
      "min": [
        -2.0322842597961426,
        -0.9926217198371887,
        -1.2558835744857788
      ],
      "type": "VEC3"
    },
    {
      "bufferView": 2,
      "byteOffset": 4621392,
      "componentType": 5126,
      "count": 65532,
      "max": [
        0.9990471005439758,
        0.9999349117279053,
        0.9999390840530396
      ],
      "min": [
        -0.9990471005439758,
        -0.9999349117279053,
        -0.9999391436576843
      ],
      "type": "VEC3"
    },
    {
      "bufferView": 1,
      "byteOffset": 1278336,
      "componentType": 5126,
      "count": 65532,
      "max": [
        1.0,
        1.0
      ],
      "min": [
        0.0,
        0.0
      ],
      "type": "VEC2"
    },
    {
      "bufferView": 0,
      "byteOffset": 958752,
      "componentType": 5125,
      "count": 98298,
      "type": "SCALAR"
    },
    {
      "bufferView": 2,
      "byteOffset": 5407776,
      "componentType": 5126,
      "count": 65532,
      "max": [
        1.8539447784423828,
        0.9438343644142151,
        1.2324579954147339
      ],
      "min": [
        -2.019023895263672,
        -0.9930384159088135,
        -0.4798487722873688
      ],
      "type": "VEC3"
    },
    {
      "bufferView": 2,
      "byteOffset": 6194160,
      "componentType": 5126,
      "count": 65532,
      "max": [
        0.9994968771934509,
        0.9998962879180908,
        0.9998998045921326
      ],
      "min": [
        -0.9994968175888062,
        -0.9998963475227356,
        -0.9998998045921326
      ],
      "type": "VEC3"
    },
    {
      "bufferView": 1,
      "byteOffset": 1802592,
      "componentType": 5126,
      "count": 65532,
      "max": [
        1.0,
        1.0
      ],
      "min": [
        0.0,
        0.0
      ],
      "type": "VEC2"
    },
    {
      "bufferView": 0,
      "byteOffset": 1351944,
      "componentType": 5125,
      "count": 98298,
      "type": "SCALAR"
    },
    {
      "bufferView": 2,
      "byteOffset": 6980544,
      "componentType": 5126,
      "count": 28728,
      "max": [
        1.9870514869689941,
        0.8669593930244446,
        1.1573652029037476
      ],
      "min": [
        -2.0329909324645996,
        -0.9930384159088135,
        -1.1260230541229248
      ],
      "type": "VEC3"
    },
    {
      "bufferView": 2,
      "byteOffset": 7325280,
      "componentType": 5126,
      "count": 28728,
      "max": [
        0.9988214373588562,
        0.9996724128723145,
        0.9999268651008606
      ],
      "min": [
        -0.9988214373588562,
        -0.9995434880256653,
        -0.9999268651008606
      ],
      "type": "VEC3"
    },
    {
      "bufferView": 1,
      "byteOffset": 2326848,
      "componentType": 5126,
      "count": 28728,
      "max": [
        1.0,
        1.0
      ],
      "min": [
        0.0,
        0.0
      ],
      "type": "VEC2"
    },
    {
      "bufferView": 0,
      "byteOffset": 1745136,
      "componentType": 5125,
      "count": 43092,
      "type": "SCALAR"
    },
    {
      "bufferView": 3,
      "componentType": 5126,
      "count": 250,
      "max": [
        10.416666984558105
      ],
      "min": [
        0.0416666679084301
      ],
      "type": "SCALAR"
    },
    {
      "bufferView": 4,
      "componentType": 5126,
      "count": 250,
      "max": [
        0.999980092048645,
        0.0,
        -0.0,
        1.0
      ],
      "min": [
        -0.99982088804245,
        0.0,
        -0.0,
        -0.006308319978415966
      ],
      "type": "VEC4"
    },
    {
      "bufferView": 3,
      "byteOffset": 1000,
      "componentType": 5126,
      "count": 250,
      "max": [
        10.416666984558105
      ],
      "min": [
        0.0416666679084301
      ],
      "type": "SCALAR"
    },
    {
      "bufferView": 4,
      "byteOffset": 4000,
      "componentType": 5126,
      "count": 250,
      "max": [
        3.199560867376476e-15,
        0.999980092048645,
        0.7003841996192932,
        7.549790126404332e-08
      ],
      "min": [
        -1.1399866612488412e-14,
        -0.7048728466033936,
        -1.0,
        -5.287753168659037e-08
      ],
      "type": "VEC4"
    }
  ],
  "animations": [
    {
      "channels": [
        {
          "sampler": 0,
          "target": {
            "node": 3,
            "path": "rotation"
          }
        },
        {
          "sampler": 1,
          "target": {
            "node": 7,
            "path": "rotation"
          }
        }
      ],
      "name": "Animation",
      "samplers": [
        {
          "input": 24,
          "interpolation": "LINEAR",
          "output": 25
        },
        {
          "input": 26,
          "interpolation": "LINEAR",
          "output": 27
        }
      ]
    }
  ],
  "asset": {
    "extras": {
      "author": "Tycho Magnetic Anomaly (https://sketchfab.com/Tycho_Magnetic_Anomaly)",
      "license": "CC-BY-4.0 (http://creativecommons.org/licenses/by/4.0/)",
      "source": "https://sketchfab.com/3d-models/accelerated-particles-c5004c26768048479287322a8546a907",
      "title": "Accelerated Particles"
    },
    "generator": "Sketchfab-15.5.0",
    "version": "2.0"
  },
  "bufferViews": [
    {
      "buffer": 0,
      "byteLength": 1917504,
      "name": "floatBufferViews",
      "target": 34963
    },
    {
      "buffer": 0,
      "byteLength": 2556672,
      "byteOffset": 1917504,
      "byteStride": 8,
      "name": "floatBufferViews",
      "target": 34962
    },
    {
      "buffer": 0,
      "byteLength": 7670016,
      "byteOffset": 4474176,
      "byteStride": 12,
      "name": "floatBufferViews",
      "target": 34962
    },
    {
      "buffer": 0,
      "byteLength": 2000,
      "byteOffset": 12144192,
      "name": "floatBufferViews"
    },
    {
      "buffer": 0,
      "byteLength": 8000,
      "byteOffset": 12146192,
      "byteStride": 16,
      "name": "floatBufferViews"
    }
  ],
  "buffers": [
    {
      "byteLength": 12154192,
      "uri": "scene.bin"
    }
  ],
  "extensionsUsed": [
    "KHR_materials_clearcoat",
    "KHR_materials_specular"
  ],
  "materials": [
    {
      "alphaMode": "BLEND",
      "doubleSided": true,
      "extensions": {
        "KHR_materials_clearcoat": {
          "clearcoatFactor": 1.0,
          "clearcoatRoughnessFactor": 0.08970989563992263
        },
        "KHR_materials_specular": {
          "specularColorFactor": [
            1.0,
            1.0,
            1.0
          ],
          "specularFactor": 0.0
        }
      },
      "name": "material",
      "pbrMetallicRoughness": {
        "baseColorFactor": [
          0.0,
          0.0,
          0.0,
          0.01434105939756158
        ],
        "metallicFactor": 0.0,
        "roughnessFactor": 0.0
      }
    }
  ],
  "meshes": [
    {
      "name": "Object_0",
      "primitives": [
        {
          "attributes": {
            "NORMAL": 1,
            "POSITION": 0,
            "TEXCOORD_0": 2
          },
          "indices": 3,
          "material": 0,
          "mode": 4
        }
      ]
    },
    {
      "name": "Object_1",
      "primitives": [
        {
          "attributes": {
            "NORMAL": 5,
            "POSITION": 4,
            "TEXCOORD_0": 6
          },
          "indices": 7,
          "material": 0,
          "mode": 4
        }
      ]
    },
    {
      "name": "Object_2",
      "primitives": [
        {
          "attributes": {
            "NORMAL": 9,
            "POSITION": 8,
            "TEXCOORD_0": 10
          },
          "indices": 11,
          "material": 0,
          "mode": 4
        }
      ]
    },
    {
      "name": "Object_3",
      "primitives": [
        {
          "attributes": {
            "NORMAL": 13,
            "POSITION": 12,
            "TEXCOORD_0": 14
          },
          "indices": 15,
          "material": 0,
          "mode": 4
        }
      ]
    },
    {
      "name": "Object_4",
      "primitives": [
        {
          "attributes": {
            "NORMAL": 17,
            "POSITION": 16,
            "TEXCOORD_0": 18
          },
          "indices": 19,
          "material": 0,
          "mode": 4
        }
      ]
    },
    {
      "name": "Object_5",
      "primitives": [
        {
          "attributes": {
            "NORMAL": 21,
            "POSITION": 20,
            "TEXCOORD_0": 22
          },
          "indices": 23,
          "material": 0,
          "mode": 4
        }
      ]
    }
  ],
  "nodes": [
    {
      "children": [
        1
      ],
      "matrix": [
        1.0,
        0.0,
        0.0,
        0.0,
        0.0,
        2.220446049250313e-16,
        -1.0,
        0.0,
        0.0,
        1.0,
        2.220446049250313e-16,
        0.0,
        0.0,
        0.0,
        0.0,
        1.0
      ],
      "name": "Sketchfab_model"
    },
    {
      "children": [
        2
      ],
      "name": "root"
    },
    {
      "children": [
        3,
        7
      ],
      "matrix": [
        1.0,
        0.0,
        0.0,
        0.0,
        0.0,
        2.220446049250313e-16,
        1.0,
        0.0,
        0.0,
        -1.0,
        2.220446049250313e-16,
        0.0,
        0.0,
        0.0,
        0.0,
        1.0
      ],
      "name": "GLTF_SceneRootNode"
    },
    {
      "children": [
        4,
        5,
        6
      ],
      "name": "Torus.001_0"
    },
    {
      "mesh": 0,
      "name": "Object_4"
    },
    {
      "mesh": 1,
      "name": "Object_5"
    },
    {
      "mesh": 2,
      "name": "Object_6"
    },
    {
      "children": [
        8,
        9,
        10
      ],
      "name": "Torus.002_2"
    },
    {
      "mesh": 3,
      "name": "Object_8"
    },
    {
      "mesh": 4,
      "name": "Object_9"
    },
    {
      "mesh": 5,
      "name": "Object_10"
    }
  ],
  "scene": 0,
  "scenes": [
    {
      "name": "Sketchfab_Scene",
      "nodes": [
        0
      ]
    }
  ]
}
