<svg width="1436" height="449" viewBox="0 0 1436 449" fill="none" xmlns="http://www.w3.org/2000/svg">
<g clip-path="url(#clip0_14_13)">
<path d="M0 202.881L34.2 214.356C68.55 225.913 136.95 248.862 205.5 261.667C274.05 274.389 342.45 276.883 411 263.746C479.55 250.525 547.95 221.756 616.8 218.43C685.5 215.104 754.5 237.222 823.2 251.274C892.05 265.243 960.45 271.063 1029 262.748C1097.55 254.433 1165.95 231.983 1234.5 225.581C1303.05 219.262 1371.45 228.907 1405.8 233.813L1440 238.635V449.831H1405.8C1371.45 449.831 1303.05 449.831 1234.5 449.831C1165.95 449.831 1097.55 449.831 1029 449.831C960.45 449.831 892.05 449.831 823.2 449.831C754.5 449.831 685.5 449.831 616.8 449.831C547.95 449.831 479.55 449.831 411 449.831C342.45 449.831 274.05 449.831 205.5 449.831C136.95 449.831 68.55 449.831 34.2 449.831H0V202.881Z" fill="#A5DBDD"/>
<path d="M0 303.491L34.2 297.67C68.55 291.85 136.95 280.209 205.5 267.986C274.05 255.847 342.45 243.042 411 238.386C479.55 233.646 547.95 236.972 616.8 246.95C685.5 256.928 754.5 273.557 823.2 272.726C892.05 271.894 960.45 253.602 1029 250.027C1097.55 246.368 1165.95 257.51 1234.5 260.004C1303.05 262.499 1371.45 256.346 1405.8 253.352L1440 250.276V449.831H1405.8C1371.45 449.831 1303.05 449.831 1234.5 449.831C1165.95 449.831 1097.55 449.831 1029 449.831C960.45 449.831 892.05 449.831 823.2 449.831C754.5 449.831 685.5 449.831 616.8 449.831C547.95 449.831 479.55 449.831 411 449.831C342.45 449.831 274.05 449.831 205.5 449.831C136.95 449.831 68.55 449.831 34.2 449.831H0V303.491Z" fill="#94CACE"/>
<path d="M0 281.872H34.2C68.55 281.872 136.95 281.872 205.5 281.706C274.05 281.623 342.45 281.29 411 277.299C479.55 273.308 547.95 265.492 616.8 268.569C685.5 271.645 754.5 285.448 823.2 287.693C892.05 289.938 960.45 280.459 1029 280.874C1097.55 281.29 1165.95 291.601 1234.5 301.412C1303.05 311.224 1371.45 320.702 1405.8 325.359L1440 330.098V449.831H1405.8C1371.45 449.831 1303.05 449.831 1234.5 449.831C1165.95 449.831 1097.55 449.831 1029 449.831C960.45 449.831 892.05 449.831 823.2 449.831C754.5 449.831 685.5 449.831 616.8 449.831C547.95 449.831 479.55 449.831 411 449.831C342.45 449.831 274.05 449.831 205.5 449.831C136.95 449.831 68.55 449.831 34.2 449.831H0V281.872Z" fill="#83BABF"/>
<path d="M0 348.391L34.2 338.579C68.55 328.685 136.95 309.062 205.5 308.313C274.05 307.648 342.45 325.941 411 332.759C479.55 339.494 547.95 334.838 616.8 333.008C685.5 331.179 754.5 332.343 823.2 333.674C892.05 335.087 960.45 336.75 1029 338.829C1097.55 340.907 1165.95 343.402 1234.5 341.988C1303.05 340.658 1371.45 335.336 1405.8 332.759L1440 330.098V449.831H1405.8C1371.45 449.831 1303.05 449.831 1234.5 449.831C1165.95 449.831 1097.55 449.831 1029 449.831C960.45 449.831 892.05 449.831 823.2 449.831C754.5 449.831 685.5 449.831 616.8 449.831C547.95 449.831 479.55 449.831 411 449.831C342.45 449.831 274.05 449.831 205.5 449.831C136.95 449.831 68.55 449.831 34.2 449.831H0V348.391Z" fill="#72AAB0"/>
<path d="M0 358.369L34.2 361.279C68.55 364.189 136.95 370.009 205.5 366.517C274.05 363.108 342.45 350.303 411 350.22C479.55 350.054 547.95 362.526 616.8 361.944C685.5 361.445 754.5 347.809 823.2 348.557C892.05 349.222 960.45 364.189 1029 362.276C1097.55 360.281 1165.95 341.489 1234.5 339.244C1303.05 336.999 1371.45 351.467 1405.8 358.618L1440 365.852V449.831H1405.8C1371.45 449.831 1303.05 449.831 1234.5 449.831C1165.95 449.831 1097.55 449.831 1029 449.831C960.45 449.831 892.05 449.831 823.2 449.831C754.5 449.831 685.5 449.831 616.8 449.831C547.95 449.831 479.55 449.831 411 449.831C342.45 449.831 274.05 449.831 205.5 449.831C136.95 449.831 68.55 449.831 34.2 449.831H0V358.369Z" fill="#619AA2"/>
<path d="M0 375.83L34.2 374.998C68.55 374.167 136.95 372.504 205.5 369.427C274.05 366.434 342.45 361.944 411 361.279C479.55 360.614 547.95 363.607 616.8 368.762C685.5 373.917 754.5 381.068 823.2 386.888C892.05 392.709 960.45 397.199 1029 397.282C1097.55 397.448 1165.95 393.291 1234.5 386.389C1303.05 379.405 1371.45 369.76 1405.8 364.854L1440 360.031V449.831H1405.8C1371.45 449.831 1303.05 449.831 1234.5 449.831C1165.95 449.831 1097.55 449.831 1029 449.831C960.45 449.831 892.05 449.831 823.2 449.831C754.5 449.831 685.5 449.831 616.8 449.831C547.95 449.831 479.55 449.831 411 449.831C342.45 449.831 274.05 449.831 205.5 449.831C136.95 449.831 68.55 449.831 34.2 449.831H0V375.83Z" fill="#518B94"/>
<path d="M0 395.785L34.2 397.032C68.55 398.28 136.95 400.774 205.5 401.356C274.05 401.855 342.45 400.525 411 404.516C479.55 408.507 547.95 417.986 616.8 422.393C685.5 426.799 754.5 426.301 823.2 425.053C892.05 423.806 960.45 421.811 1029 419.316C1097.55 416.822 1165.95 413.828 1234.5 410.752C1303.05 407.675 1371.45 404.682 1405.8 403.102L1440 401.606V449.831H1405.8C1371.45 449.831 1303.05 449.831 1234.5 449.831C1165.95 449.831 1097.55 449.831 1029 449.831C960.45 449.831 892.05 449.831 823.2 449.831C754.5 449.831 685.5 449.831 616.8 449.831C547.95 449.831 479.55 449.831 411 449.831C342.45 449.831 274.05 449.831 205.5 449.831C136.95 449.831 68.55 449.831 34.2 449.831H0V395.785Z" fill="#407C86"/>
</g>
<defs>
<clipPath id="clip0_14_13">
<rect width="1440" height="449" fill="white"/>
</clipPath>
</defs>
</svg>
